<svg version="1.2" xmlns="http://www.w3.org/2000/svg" viewBox="0 0 126 125" width="24" height="24">
	<title>airport-svg</title>
	<style>
		.s0 { fill: #000000 } 
	</style>
	<g id="Layer">
		<g id="Layer">
			<g id="Layer">
				<path id="Layer" class="s0" d="m71.2 63.2c4.1-1.7 8.3-3.4 12.5-5l-18.5-8.1c-0.4-0.2-0.9-0.2-1.3-0.1l-3.4 1.3c-0.5 0.2-0.7 0.9-0.3 1.3z"/>
				<path id="Layer" class="s0" d="m53.2 78.8c1.2 1.9 3.5 2.7 5.7 2.1l4-1.1c4.8-1.4 9.5-2.8 14.2-4.3l-2 18.2c-0.1 0.6 0.5 1 1 0.8l3.5-1.3c0.4-0.1 0.7-0.5 0.9-0.8l10.7-21.6c2.9-1 5.9-2 8.8-3.1l4.5-1.6c2.5-0.9 3.4-3.9 2-6.1-2.3-3.4-6.7-4.9-10.6-3.5-12.3 4.5-24.4 9.3-36.4 14.6l-1 0.5c-0.4 0.2-0.9 0.1-1.2-0.2l-3-2.4c-0.2-0.2-0.6-0.3-0.9-0.1l-4.3 1.6c-0.6 0.2-0.8 0.9-0.4 1.4z"/>
				<path id="Layer" fill-rule="evenodd" class="s0" d="m107.9 103.6v17.2c0 2.3-1.9 4.2-4.2 4.2h-86.5c-2.3 0-4.2-1.9-4.2-4.2v-17.2c0-2.3 1.9-4.2 4.2-4.2h3.7v-19.9l-5.5-6.2c-0.9-1-1.4-2.3-1.4-3.6v-6c0-1.6 1.3-2.9 2.9-2.9h8.6v-7.4c0-1.3 1-2.3 2.3-2.3 1.3 0 2.3 1 2.3 2.3v7.4h8.6c1.6 0 2.9 1.3 2.9 2.9v6c0 1.3-0.5 2.6-1.4 3.6l-5.5 6.2v19.9h69.1c2.3 0 4.2 1.9 4.1 4.2zm-75.6 6.3c0-0.7-0.6-1.2-1.2-1.2h-6.7c-0.7 0-1.2 0.6-1.2 1.2v4.7c0 0.7 0.6 1.2 1.2 1.2h6.7c0.7 0 1.2-0.6 1.2-1.2zm2.1-39.4v-4c0-0.6-0.5-1.1-1.1-1.1h-11.2c-0.6 0-1.1 0.5-1.1 1.1v4c0 0.6 0.5 1.1 1.1 1.1h11.3c0.6 0 1.1-0.5 1.1-1.1zm14.3 39.4c0-0.7-0.6-1.2-1.2-1.2h-6.7c-0.7 0-1.2 0.6-1.2 1.2v4.7c0 0.7 0.6 1.2 1.2 1.2h6.7c0.7 0 1.2-0.6 1.2-1.2zm16.3 0c0-0.7-0.6-1.2-1.2-1.2h-6.7c-0.7 0-1.2 0.6-1.2 1.2v4.7c0 0.7 0.6 1.2 1.2 1.2h6.7c0.7 0 1.2-0.6 1.2-1.2zm16.4 0c0-0.7-0.6-1.2-1.2-1.2h-6.7c-0.7 0-1.2 0.6-1.2 1.2v4.7c0 0.7 0.6 1.2 1.2 1.2h6.7c0.7 0 1.2-0.6 1.2-1.2zm16.3 0c0-0.7-0.6-1.2-1.2-1.2h-6.7c-0.7 0-1.2 0.6-1.2 1.2v4.7c0 0.7 0.6 1.2 1.2 1.2h6.7c0.7 0 1.2-0.6 1.2-1.2z"/>
			</g>
		</g>
	</g>
</svg>