<svg version="1.2" xmlns="http://www.w3.org/2000/svg" viewBox="0 0 126 125" width="24" height="24">
	<title>customs-svg</title>
	<style>
		.s0 { fill: #000000 } 
	</style>
	<g id="Layer">
		<g id="Layer">
			<g id="Layer">
				<g id="Layer">
					<path id="Layer" fill-rule="evenodd" class="s0" d="m41.6 93.6c-1.8 4.9 0.8 10.4 5.7 12.2l8.9 3.2c1.6 0.6 3.3 1 5 1.1v6.9c0 0.7-0.6 1.3-1.3 1.3h-43.1c-0.7 0-1.3-0.6-1.3-1.3v-36.4h45.7v9.9l-7.4-2.7c-1-0.4-2.1-0.6-3.2-0.6-4 0-7.6 2.5-9 6.4zm-9 17.5h-10.2v2.4h10.2zm0.6-11l-5.7-6.6-5.7 6.6h3.7v8.9h4v-8.9z"/>
					<path id="Layer" class="s0" d="m40.8 75.7v-8h9.1c0.4 0 0.7 0.2 1 0.4l6.7 7.5h-16.8z"/>
					<path id="Layer" class="s0" d="m19.1 75.7l6.7-7.5c0.2-0.3 0.6-0.4 1-0.4h9.1v8h-16.8z"/>
				</g>
				<g id="Layer">
					<g id="Layer">
						<g id="Layer">
							<path id="Layer" class="s0" d="m78.4 110.3l22.9-29h-19.2c-3.9 0-7.7 1.7-10.2 4.7l-7 8.1c-0.9 1-2.3 1.4-3.5 0.9l-8.9-3.2c-2.8-1-5.8 0.4-6.8 3.2-1 2.8 0.4 5.8 3.2 6.8l8.9 3.2c5.4 2 11.4 0.4 15.2-3.9l5.5-6.3v15.5z"/>
						</g>
					</g>
					<path id="Layer" class="s0" d="m106.1 82.5l-24.5 31h18.2v4.5h-21.4v3.8c0 1.8 1.4 3.2 3.2 3.2h25.7c1.8 0 3.2-1.4 3.2-3.2v-31.7c0-3.2-1.8-6.1-4.4-7.6z"/>
					<path id="Layer" class="s0" d="m74.9 65.3h4.4v0.8c0 6.9 5.6 12.5 12.5 12.5 6.9 0 12.5-5.6 12.5-12.5 0-2-0.5-3.8-1.3-5.5h-22.5l-6 3.2c-0.6 0.4-0.4 1.5 0.4 1.5z"/>
					<path id="Layer" class="s0" d="m79.8 57.5c0.2 0.3 0.6 0.6 1 0.6h21.9c0.6 0 1.1-0.5 1.1-1.1v-3.8c0-0.6-0.4-1-1-1.1l-25.2-2c-0.9-0.1-1.5 0.9-1 1.6z"/>
				</g>
			</g>
		</g>
	</g>
</svg>