<svg version="1.2" xmlns="http://www.w3.org/2000/svg" viewBox="0 0 126 125" width="24" height="24">
	<title>warehouse-svg</title>
	<style>
		.s0 { fill: #000000 } 
	</style>
	<g id="Layer">
		<path id="Layer" fill-rule="evenodd" class="s0" d="m18.7 41.9h32.3v20.8q0 0.1 0 0.3v62h-10.7v-15h-9v15h-12.6zm5 12.4h7.6v-6.9h-7.6zm14.5 0h7.6v-6.9h-7.6zm-14.5 12.1h7.6v-6.9h-7.6zm14.5 0h7.6v-7h-7.6zm14.6-2.2l54.5 18.7v42.1h-9.2v-30.1c0-0.5-0.2-0.8-0.6-0.9q-0.1 0-0.2 0h-34.6c-0.5 0-0.9 0.4-0.9 0.9v30.1h-9zm-29.1 14.4h7.6v-7h-7.6zm14.5 0h7.6v-6.9h-7.6zm-14.5 12.1h7.6v-6.9h-7.6zm14.5 0h7.6v-6.9h-7.6zm19.1-1.4h7.7v-2.2h-7.7zm12.1 0h7.6v-2.3h-7.6zm12.1 0h7.6v-2.2h-7.6zm12 0h7.7v-2.3h-7.7zm2.9 6.5v4.2h-32.9v-4.2zm-72.7 7h7.6v-6.9h-7.6zm14.5 0h7.6v-6.9h-7.6zm58.2 0.2v4.2h-32.9v-4.2zm0 7.3v4.2h-32.9v-4.2zm0 7.2v4.2h-32.9v-4.2zm0 7.3v0.2h-32.9v-0.2z"/>
	</g>
</svg>