<svg version="1.2" xmlns="http://www.w3.org/2000/svg" viewBox="0 0 24 24" width="24" height="24">
	<title>zone-svg</title>
	<style>
		.s0 { fill: #000000 } 
	</style>
	<g id="Layer">
		<path id="Layer1" fill-rule="evenodd" class="s0" d="m12 21.9c-1.6-2.8-5.3-7.5-5.3-10.8 0-2.9 2.4-5.3 5.3-5.3 2.9 0 5.3 2.4 5.3 5.3 0 3.3-3.7 8-5.3 10.8zm5.3 0.1c0 1.1-2.4 2-5.3 2-2.9 0-5.3-0.9-5.3-2 0-0.8 1.4-1.5 3.4-1.8l0.4 0.7c-1.3 0.1-2.3 0.5-2.3 0.9 0 0.6 1.7 1 3.8 1 2.1 0 3.8-0.4 3.8-1 0-0.4-1-0.8-2.3-0.9l0.4-0.7c2 0.3 3.4 1 3.4 1.8zm-7.5-10.9c0 1.2 1 2.1 2.2 2.1 1.2 0 2.2-0.9 2.2-2.1 0-1.2-1-2.2-2.2-2.2-1.2 0-2.2 1-2.2 2.2z"/>
	</g>
</svg>